<svg xmlns="http://www.w3.org/2000/svg" xmlns:svg="http://www.w3.org/2000/svg" xmlns:xlink="http://www.w3.org/1999/xlink" id="svg1" width="755.906" height="120mm" version="1.1" viewBox="0 0 200 120" xml:space="preserve"><title id="title1">Type 2 Controller</title><defs id="defs1"><linearGradient id="linearGradient39"><stop style="stop-color:#666;stop-opacity:1" id="stop39" offset=".748"/><stop style="stop-color:#666;stop-opacity:0" id="stop40" offset="1"/></linearGradient><linearGradient id="linearGradient40" x1="46.534" x2="46.534" y1="146.288" y2="173.177" gradientUnits="userSpaceOnUse" xlink:href="#linearGradient39"/><linearGradient id="linearGradient42" x1="162.826" x2="162.826" y1="142.988" y2="175.046" gradientUnits="userSpaceOnUse" xlink:href="#linearGradient39"/></defs><g id="layer1" transform="translate(-14.730397,-129.73416)" style="display:inline"><rect style="display:inline;opacity:1;fill:#ccc;stroke:#000;stroke-width:1.32291667;stroke-dasharray:none;stroke-opacity:1" id="rect8" width="198.704" height="118.704" x="15.378" y="130.382" rx="2.472" ry="3.363"/><g id="g16" transform="matrix(1.0749636,0,0,1.0749636,2.8271683,-1.097153)" style="opacity:1"><path style="display:inline;opacity:1;fill:#999;fill-opacity:1;stroke:#333;stroke-width:.79375;stroke-dasharray:none;stroke-opacity:1" id="path39" d="m 21.710526,187.33082 h 50.616542 v -39.14097 c -0.545356,-1.23253 -1.149028,-1.87297 -2.363745,-1.86609 H 24.067669 c -1.241417,-0.0562 -1.838016,0.47327 -2.417781,1.57497 z"/><path style="display:inline;opacity:1;fill:url(#linearGradient40);stroke:none;stroke-width:.646515;stroke-dasharray:none;stroke-opacity:1" id="path37" d="m 21.637089,173.375 h 50.763593 v -25.89173 c -0.546941,-0.81532 -1.152367,-1.23897 -2.370613,-1.23442 H 24.00108 c -1.245024,-0.0372 -1.843356,0.31307 -2.424805,1.04184 z"/><path style="display:inline;opacity:1;fill:none;fill-opacity:1;stroke:#333;stroke-width:.79375;stroke-dasharray:none;stroke-opacity:1" id="path16" d="m 21.710526,187.33082 h 50.616542 v -39.14097 c -0.545356,-1.23253 -1.149028,-1.87297 -2.363745,-1.86609 H 24.067669 c -1.241417,-0.0562 -1.838016,0.47327 -2.417781,1.57497 z"/><path style="display:inline;fill:#666;stroke:#333;stroke-width:.79375;stroke-dasharray:none;stroke-opacity:1" id="path13" d="m 40.879278,186.63233 h 12.193603 v -20.00102 c -4.137846,-2.90386 -7.940379,-2.80881 -11.974292,0 z"/><rect style="display:inline;fill:#999;fill-opacity:1;stroke:#4d4d4d;stroke-width:.79375;stroke-dasharray:none;stroke-opacity:1" id="rect10" width="6.885" height="19.539" x="43.545" y="158.549" rx="2.233" ry="2.481"/><path id="path17" d="m 29.537215,171.85101 v 11.00915 h -3.395658 l 5.307169,4.21059 5.263762,-4.21059 h -3.402893 v -11.00915 z" style="display:inline;fill:#00f;fill-opacity:1;stroke:#1a1a1a;stroke-width:.264583;stroke-dasharray:none;stroke-opacity:1"/><path id="rect9" d="m 30.891138,141.42858 c -0.756026,0 -1.364775,0.60875 -1.364775,1.36477 v 9.42837 c 0,0.75602 0.608749,1.36477 1.364775,1.36477 h 11.041186 v 7.00939 c 0,0.75602 0.608749,1.36478 1.364775,1.36478 h 7.505485 c 0.756025,0 1.364774,-0.60876 1.364774,-1.36478 v -7.00939 h 10.731128 c 0.756026,0 1.364775,-0.60875 1.364775,-1.36477 v -9.42837 c 0,-0.75602 -0.608749,-1.36477 -1.364775,-1.36477 z" style="fill:#333;stroke:#000;stroke-width:.79375;stroke-dasharray:none;stroke-opacity:1"/></g><path style="display:inline;fill:none;fill-opacity:.501961;stroke:#000;stroke-width:.831196;stroke-dasharray:none;stroke-opacity:1" id="path48" d="m 15.332463,197.24498 c 0.20486,2.09786 1.341845,3.11966 3.479134,3.0383 H 209.9763 c 3.17128,0.0641 3.57674,-1.50735 3.75453,-3.26047"/><g id="g43" transform="translate(14.730233,119.15059)"><path style="display:inline;fill:#4d4d4d;fill-opacity:.501961;stroke:#4d4d4d;stroke-width:.278647;stroke-dasharray:none;stroke-opacity:1" id="path43-1" d="M 3.196862,17.718475 H 196.80314"/><g id="g1" transform="matrix(0.97520481,0,0,0.97520481,-0.12816683,-102.8647)" style="display:inline"><path id="path45" d="m 84.696199,12.779403 c -1.040148,0 -1.877547,0.763873 -1.877547,1.712759 v 4.190663 A 18.951257,14.249963 0 0 0 71.532696,31.694892 18.951257,14.249963 0 0 0 90.483883,45.944888 18.951257,14.249963 0 0 0 109.43507,31.694892 18.951257,14.249963 0 0 0 97.82301,18.56118 v -4.069018 c 0,-0.948886 -0.837399,-1.712759 -1.877547,-1.712759 z" transform="translate(14.730233,129.73399)" style="display:inline;fill:none;fill-opacity:.501961;stroke:#999;stroke-width:.526288;stroke-dasharray:none;stroke-opacity:1"/><path style="fill:none;fill-opacity:.501961;stroke:#999;stroke-width:.264583;stroke-dasharray:none;stroke-opacity:1" id="path49" d="m 112.15814,148.94807 c 7.79811,2.93516 10.88241,7.26701 11.17341,12.4265"/><path style="display:inline;fill:none;fill-opacity:.501961;stroke:#999;stroke-width:.264583;stroke-dasharray:none;stroke-opacity:1" id="path49-9" d="m 90.503652,168.92007 c -4.823379,-2.91667 -6.160416,-15.12743 7.100859,-19.7362"/></g></g><g id="g20" transform="matrix(1.0947959,0,0,1.0947959,-1.1509295,-1.1351984)" style="display:inline"><path style="display:inline;opacity:1;fill:#999;fill-opacity:1;stroke:#333;stroke-width:.704012;stroke-dasharray:none;stroke-opacity:1" id="path16-9" d="m 138.01273,173.00031 c -0.044,1.28702 0.96849,2.26687 2.04719,2.32007 l 46.34421,-0.13661 c 1.15452,-0.0311 2.10013,-1.36354 2.09591,-2.60108 l -0.0878,-27.86856 c -0.19132,-1.16107 -0.70366,-1.85355 -2.08646,-1.89451 h -45.83867 c -1.23395,-0.0444 -2.44079,0.9314 -2.44707,2.36014 z"/><path style="display:inline;opacity:1;fill:url(#linearGradient42);stroke:#333;stroke-width:.529167;stroke-dasharray:none;stroke-opacity:1" id="path40" d="m 138.01273,173.00031 c -0.044,1.28702 0.96849,2.26687 2.04719,2.32007 l 46.34421,-0.13661 c 1.15452,-0.0311 2.10013,-1.36354 2.09591,-2.60108 l -0.0878,-27.86856 c -0.19132,-1.16107 -0.70366,-1.85355 -2.08646,-1.89451 h -45.83867 c -1.23395,-0.0444 -2.44079,0.9314 -2.44707,2.36014 z"/><path style="display:inline;opacity:1;fill:none;fill-opacity:1;stroke:#333;stroke-width:.79375;stroke-dasharray:none;stroke-opacity:1" id="path41" d="m 138.01273,173.00031 c -0.044,1.28702 0.96849,2.26687 2.04719,2.32007 l 46.34421,-0.13661 c 1.15452,-0.0311 2.10013,-1.36354 2.09591,-2.60108 l -0.0878,-27.86856 c -0.19132,-1.16107 -0.70366,-1.85355 -2.08646,-1.89451 h -45.83867 c -1.23395,-0.0444 -2.44079,0.9314 -2.44707,2.36014 z"/><g id="g28"><path style="display:inline;opacity:1;fill:#00f;fill-opacity:1;stroke:#00f;stroke-width:.674502;stroke-dasharray:none;stroke-opacity:1" id="path23" d="m 160.92386,170.29778 c 0.36836,-1.16373 0.15004,-2.52386 0.0401,-3.4375 2.06432,1.04647 4.19627,2.00761 5.39915,1.93021 -2.28058,0.9407 -4.09442,1.44383 -5.43928,1.50729 z"/><path style="display:inline;opacity:1;fill:#00f;fill-opacity:1;stroke:#00f;stroke-width:.717943;stroke-dasharray:none;stroke-opacity:1" id="path24" d="m 150.7478,164.65023 c 0.97044,-0.60694 2.23468,-1.10785 3.49591,-1.33866 l -3.00302,-2.0967 z"/><path style="display:inline;fill:none;fill-opacity:1;stroke:#00f;stroke-width:1.28937;stroke-dasharray:none;stroke-opacity:1" id="path25" d="m 152.35859,163.85962 c 1.31064,1.69655 3.97173,4.35096 8.65396,5.02183"/><path style="display:inline;fill:maroon;fill-opacity:1;stroke:maroon;stroke-width:.529167;stroke-dasharray:none;stroke-opacity:1" id="path26" d="m 169.87708,164.96455 c 1.02261,1.23231 2.14566,1.96242 3.33351,2.36855 -1.76916,1.10603 -3.69191,1.62689 -6.11874,1.40358 2.3133,-0.84637 2.61315,-2.63011 2.78523,-3.77213 z"/><path style="display:inline;opacity:1;fill:maroon;fill-opacity:1;stroke:maroon;stroke-width:.529167;stroke-dasharray:none;stroke-opacity:1" id="path27" d="m 173.88512,160.74785 c 2.09974,0.28795 2.84231,1.06942 4.12835,1.65326 -0.37347,-1.44412 -0.39013,-2.41578 -1.40359,-3.9939 -1.15179,1.03969 -1.69064,1.77205 -2.72476,2.34064 z"/><path style="display:inline;fill:maroon;fill-opacity:1;stroke:maroon;stroke-width:1.28937;stroke-dasharray:none;stroke-opacity:1" id="path28" d="m 176.28525,160.26295 c -0.93009,3.29635 -2.56819,4.47204 -4.89936,6.33768"/></g><path style="display:inline;fill:#00f;fill-opacity:1;stroke:#00f;stroke-width:.906406;stroke-dasharray:none;stroke-opacity:1" id="path22" d="m 173.56148,158.03438 h 7.14949"/><path style="display:inline;fill:#00f;fill-opacity:1;stroke:#00f;stroke-width:.79375;stroke-dasharray:none;stroke-opacity:1" id="path21" d="m 165.53476,165.4909 2.01764,5.52659"/><path id="path19" d="m 175.18143,157.19001 c -2.19078,2.49491 -6.08848,8.21017 -11.48885,8.21017 -5.40037,0 -9.77823,-3.57763 -9.77823,-7.99086 -1e-5,-4.41323 4.37786,-7.99087 9.77823,-7.99087 2.99999,0 9.87325,1.67425 11.66694,3.41228 1.43519,1.39065 0.66364,3.40071 -0.17809,4.35928 z" style="display:inline;opacity:1;fill:#666;stroke:#1a1a1a;stroke-width:.799682"/><path style="display:inline;opacity:1;fill:#333;fill-opacity:1;stroke:#1a1a1a;stroke-width:.79375;stroke-dasharray:none;stroke-opacity:1" id="path18" d="m 158.78003,160.09588 -57.63452,16.2289 c -2.461202,0.29247 -6.873638,1.6867 -11.930432,0.87724 -1.557762,-0.4299 -2.719996,-2.05059 -2.631715,-3.07033 0.276372,-1.4134 2.225948,-3.50812 5.702046,-4.56164 11.500751,-3.08575 43.657191,-8.88935 65.485791,-13.33402 z"/><path style="opacity:1;fill:#333;fill-opacity:1;stroke:#1a1a1a;stroke-width:.79375;stroke-dasharray:none;stroke-opacity:1" id="path20" d="m 161.10471,152.0253 c 1.24275,-0.32896 3.84377,-0.65159 12.01816,0 1.11339,0.27909 2.26824,0.3094 3.15805,1.92992 0.32116,0.81404 0.11692,1.87632 -1.05269,3.11419 -3.85353,3.25341 -5.31641,3.72914 -6.84245,4.64936 -1.99873,0.99976 -3.34755,1.27705 -4.78095,1.40358 -1.64109,0.13745 -3.36921,0.0991 -5.1757,-1.40358 -1.67899,-1.27165 -2.06446,-2.73241 -2.12619,-3.78142 -0.0364,-1.08668 0.42075,-2.60847 1.4913,-3.77213 0.8033,-0.92345 1.88521,-1.79442 3.31047,-2.13992 z"/><path style="display:inline;fill:none;fill-opacity:.501961;stroke:#404040;stroke-width:.264583;stroke-dasharray:none;stroke-opacity:1" id="path50" d="m 179.78875,153.65874 c 3.35604,1.1188 4.29157,4.87361 2.1006,7.1452" transform="translate(-15.358546,-0.44303482)"/></g><g id="g3" transform="translate(9.7321176,19.581683)" style="display:inline"><text id="text28" x="86.761" y="211.61" class="cls-27" transform="scale(0.99498745,1.0050378)" style="font-style:normal;font-variant:normal;font-weight:400;font-stretch:normal;font-size:4.93889px;font-family:Roboto-Black,Roboto;-inkscape-font-specification:'Roboto-Black, Roboto, ';font-variant-ligatures:normal;font-variant-caps:normal;font-variant-numeric:normal;font-variant-east-asian:normal;stroke-width:.382861"><tspan id="tspan26" x="86.761" y="211.61" style="font-style:normal;font-variant:normal;font-weight:400;font-stretch:normal;font-size:4.93889px;font-family:Roboto-Black,Roboto;-inkscape-font-specification:'Roboto-Black, Roboto, ';font-variant-ligatures:normal;font-variant-caps:normal;font-variant-numeric:normal;font-variant-east-asian:normal;stroke-width:.382861">SELE</tspan><tspan id="tspan27" x="98.354" y="211.61" class="cls-20" style="font-style:normal;font-variant:normal;font-weight:400;font-stretch:normal;font-size:4.93889px;font-family:Roboto-Black,Roboto;-inkscape-font-specification:'Roboto-Black, Roboto, ';font-variant-ligatures:normal;font-variant-caps:normal;font-variant-numeric:normal;font-variant-east-asian:normal;stroke-width:.382861">C</tspan><tspan id="tspan28" x="101.608" y="211.61" class="cls-28" style="font-style:normal;font-variant:normal;font-weight:400;font-stretch:normal;font-size:4.93889px;font-family:Roboto-Black,Roboto;-inkscape-font-specification:'Roboto-Black, Roboto, ';font-variant-ligatures:normal;font-variant-caps:normal;font-variant-numeric:normal;font-variant-east-asian:normal;stroke-width:.382861">T</tspan></text><text id="text33" x="108.029" y="211.509" class="cls-27" transform="scale(0.99498745,1.0050378)" style="font-style:normal;font-variant:normal;font-weight:400;font-stretch:normal;font-size:4.93889px;font-family:Roboto-Black,Roboto;-inkscape-font-specification:'Roboto-Black, Roboto, ';font-variant-ligatures:normal;font-variant-caps:normal;font-variant-numeric:normal;font-variant-east-asian:normal;stroke-width:.375524"><tspan id="tspan29" x="108.029" y="211.509" style="font-style:normal;font-variant:normal;font-weight:400;font-stretch:normal;font-size:4.93889px;font-family:Roboto-Black,Roboto;-inkscape-font-specification:'Roboto-Black, Roboto, ';font-variant-ligatures:normal;font-variant-caps:normal;font-variant-numeric:normal;font-variant-east-asian:normal;stroke-width:.375524">S</tspan><tspan id="tspan30" x="111.142" y="211.509" class="cls-19" style="font-style:normal;font-variant:normal;font-weight:400;font-stretch:normal;font-size:4.93889px;font-family:Roboto-Black,Roboto;-inkscape-font-specification:'Roboto-Black, Roboto, ';font-variant-ligatures:normal;font-variant-caps:normal;font-variant-numeric:normal;font-variant-east-asian:normal;stroke-width:.375524">T</tspan><tspan id="tspan31" x="113.985" y="211.509" class="cls-23" style="font-style:normal;font-variant:normal;font-weight:400;font-stretch:normal;font-size:4.93889px;font-family:Roboto-Black,Roboto;-inkscape-font-specification:'Roboto-Black, Roboto, ';font-variant-ligatures:normal;font-variant-caps:normal;font-variant-numeric:normal;font-variant-east-asian:normal;stroke-width:.375524">A</tspan><tspan id="tspan32" x="117.372" y="211.509" class="cls-18" style="font-style:normal;font-variant:normal;font-weight:400;font-stretch:normal;font-size:4.93889px;font-family:Roboto-Black,Roboto;-inkscape-font-specification:'Roboto-Black, Roboto, ';font-variant-ligatures:normal;font-variant-caps:normal;font-variant-numeric:normal;font-variant-east-asian:normal;stroke-width:.375524">R</tspan><tspan id="tspan33" x="120.492" y="211.509" class="cls-28" style="font-style:normal;font-variant:normal;font-weight:400;font-stretch:normal;font-size:4.93889px;font-family:Roboto-Black,Roboto;-inkscape-font-specification:'Roboto-Black, Roboto, ';font-variant-ligatures:normal;font-variant-caps:normal;font-variant-numeric:normal;font-variant-east-asian:normal;stroke-width:.375524">T</tspan></text><rect style="fill:#4d4d4d;stroke:#333;stroke-width:.79375;stroke-dasharray:none;stroke-opacity:1" id="rect2" width="10.209" height="3.849" x="90.126" y="201.832"/><path style="display:inline;fill:#4d4d4d;stroke:#333;stroke-width:.79375;stroke-dasharray:none;stroke-opacity:1" id="path3-6-2-9-6-9-5-9" d="m 110.18332,201.88593 0.035,3.77756 c 5.822,-0.47825 10.04874,-1.60399 10.06293,-1.93142 0.0128,-0.31427 -4.38631,-1.38409 -10.0978,-1.84614 z"/><path style="display:inline;fill:none;fill-opacity:.501961;stroke:#999;stroke-width:.264583;stroke-dasharray:none;stroke-opacity:1" id="path44" d="m 79.098331,117.73561 v -6.9573 c -0.04952,-0.48206 0.234277,-0.57526 0.598754,-0.57433 h 41.341895" transform="translate(4.612952,90.046471)"/></g><g id="g7" transform="translate(-1.0442434,19.581683)" style="display:inline"><circle style="fill:#4d4d4d;stroke:#333;stroke-width:.79375;stroke-dasharray:none;stroke-opacity:1" id="path2" cx="166.861" cy="196.263" r="4.714"/><circle style="fill:#4d4d4d;stroke:#333;stroke-width:.79375;stroke-dasharray:none;stroke-opacity:1" id="path2-7" cx="176.5" cy="203.757" r="4.714"/><circle style="fill:#4d4d4d;stroke:#333;stroke-width:.79375;stroke-dasharray:none;stroke-opacity:1" id="path2-2" cx="157.188" cy="203.757" r="4.714"/><circle style="fill:#4d4d4d;stroke:#333;stroke-width:.79375;stroke-dasharray:none;stroke-opacity:1" id="path2-1" cx="166.861" cy="211.184" r="4.714"/><text id="text33-3-0" x="165.641" y="212.392" class="cls-27" transform="scale(0.99498745,1.0050378)" style="font-style:normal;font-variant:normal;font-weight:400;font-stretch:normal;font-size:6.35px;font-family:Roboto-Black,Roboto;-inkscape-font-specification:'Roboto-Black, Roboto, Normal';font-variant-ligatures:normal;font-variant-caps:normal;font-variant-numeric:normal;font-variant-east-asian:normal;stroke-width:.375524"><tspan id="tspan7" x="165.641" y="212.392">B</tspan></text><text id="text33-3" x="155.955" y="205.012" class="cls-27" transform="scale(0.99498745,1.0050378)" style="font-style:normal;font-variant:normal;font-weight:400;font-stretch:normal;font-size:6.35px;font-family:Roboto-Black,Roboto;-inkscape-font-specification:'Roboto-Black, Roboto, Normal';font-variant-ligatures:normal;font-variant-caps:normal;font-variant-numeric:normal;font-variant-east-asian:normal;stroke-width:.375524"><tspan id="tspan3" x="155.955" y="205.012">A</tspan></text><text id="text4" x="175.287" y="205.002" class="cls-27" transform="scale(0.99498745,1.0050378)" style="font-style:normal;font-variant:normal;font-weight:400;font-stretch:normal;font-size:6.35px;font-family:Roboto-Black,Roboto;-inkscape-font-specification:'Roboto-Black, Roboto, Normal';font-variant-ligatures:normal;font-variant-caps:normal;font-variant-numeric:normal;font-variant-east-asian:normal;stroke-width:.375524"><tspan id="tspan6" x="175.287" y="205.002">C</tspan></text><text id="text5" x="165.545" y="197.546" class="cls-27" transform="scale(0.99498745,1.0050378)" style="font-style:normal;font-variant:normal;font-weight:400;font-stretch:normal;font-size:6.35px;font-family:Roboto-Black,Roboto;-inkscape-font-specification:'Roboto-Black, Roboto, Normal';font-variant-ligatures:normal;font-variant-caps:normal;font-variant-numeric:normal;font-variant-east-asian:normal;stroke-width:.375524"><tspan id="tspan5" x="165.545" y="197.546">D</tspan></text><path style="display:inline;fill:none;fill-opacity:.501961;stroke:#999;stroke-width:.255459;stroke-dasharray:none;stroke-opacity:1" id="path44-3-9" d="m 144.52238,107.65114 v -2.58273 c 0,-2.00996 2.93919,-5.201467 5.45442,-5.201467 l 4.65322,0.0344" transform="translate(14.730233,90.046471)"/><path style="display:inline;fill:none;fill-opacity:.501961;stroke:#999;stroke-width:.264583;stroke-dasharray:none;stroke-opacity:1" id="path44-3-9-9" d="m 134.61035,116.13831 v -2.77208 c 0,-2.15731 2.86297,-5.5828 5.31297,-5.5828 l 4.53254,0.0369" transform="translate(14.730233,90.046471)"/></g><g id="g8" transform="translate(-1.0442434,19.581683)" style="display:inline"><path style="display:inline;fill:#4d4d4d;stroke:#333;stroke-width:.79375;stroke-dasharray:none;stroke-opacity:1" id="path3-6-2-9-6-9-5" d="m 70.889418,201.79076 0.02452,4.65124 c 4.003024,0 7.047678,-1.97496 7.057631,-2.37814 0.0092,-0.38694 -3.07633,-2.24778 -7.082098,-2.2731 z"/><path style="display:inline;fill:#4d4d4d;stroke:#333;stroke-width:.79375;stroke-dasharray:none;stroke-opacity:1" id="path3-6-2-9-6-9-5-6" d="m 61.842931,206.442 -0.02452,-4.65124 c -4.003024,0 -7.047678,1.97496 -7.057631,2.37814 -0.0092,0.38693 3.07633,2.24778 7.082098,2.2731 z"/><path style="fill:#4d4d4d;stroke:#333;stroke-width:.79375;stroke-dasharray:none;stroke-opacity:1" id="path3-6-2-9-6" d="m 69.527327,208.20625 -5.579555,0.0185 c 0,3.02032 2.369132,5.31754 2.852782,5.32505 0.464147,0.007 2.696405,-2.32112 2.726773,-5.34351 z"/><path style="display:inline;fill:#4d4d4d;stroke:#333;stroke-width:.79375;stroke-dasharray:none;stroke-opacity:1" id="path3-6-2-9-6-9" d="m 63.947772,200.32786 5.579555,-0.0185 c 0,-3.02032 -2.369132,-5.31754 -2.852782,-5.32505 -0.464147,-0.007 -2.696405,2.32112 -2.726773,5.34351 z"/><path style="display:inline;fill:none;fill-opacity:.501961;stroke:#999;stroke-width:.264583;stroke-dasharray:none;stroke-opacity:1" id="path44-3-0" d="m 37.752409,117.23364 v -6.54254 c -0.01047,-0.45332 0.04951,-0.54097 0.126534,-0.54009 h 8.736619" transform="translate(14.730233,90.046471)"/><path style="display:inline;fill:none;fill-opacity:.501961;stroke:#999;stroke-width:.264583;stroke-dasharray:none;stroke-opacity:1" id="path44-3" d="m 46.679259,110.09203 v -6.15373 c -0.01237,-0.42638 0.05853,-0.50882 0.149591,-0.50799 h 10.328698" transform="translate(14.730233,90.046471)"/></g></g><metadata id="metadata1"/></svg>