<svg xmlns="http://www.w3.org/2000/svg" viewBox="0 0 640 480"><path fill="#0d5eaf" fill-rule="evenodd" d="m0 0h640v53.3h-640z"/><path fill="#fff" fill-rule="evenodd" d="m0 53.3h640v53.4h-640z"/><path fill="#0d5eaf" fill-rule="evenodd" d="m0 106.7h640v53.3h-640z"/><path fill="#fff" fill-rule="evenodd" d="m0 160h640v53.3h-640z"/><path fill="#0d5eaf" d="m0 0h266.7v266.7h-266.7z"/><g fill-rule="evenodd"><path fill="#0d5eaf" d="m0 213.3h640v53.4h-640z"/><path fill="#fff" d="m0 266.7h640v53.3h-640z"/><path fill="#0d5eaf" d="m0 320h640v53.3h-640z"/><path fill="#fff" d="m0 373.3h640v53.4h-640z"/><g fill="#fff" stroke-width="1.3"><path d="m106.7 0h53.3v266.7h-53.3z"/><path d="m0 106.7h266.7v53.3h-266.7z"/></g></g><path fill="#0d5eaf" d="m0 426.7h640v53.3h-640z"/></svg>