<svg xmlns="http://www.w3.org/2000/svg" xmlns:xlink="http://www.w3.org/1999/xlink" viewBox="0 0 640 480"><clipPath id="a"><path d="m-95.8-.4h682.7v512h-682.7z"/></clipPath><g fill-rule="evenodd" clip-path="url(#a)" transform="matrix(.9375 0 0 .9375 89.8 .4)"><path fill="#fff" d="m-95.8-.4h682.8v512h-682.8z"/><g transform="matrix(5.91834241 -8.87418008 8.87418008 5.91834241 245.245208 255.740351)"><g id="b"><path id="c" fill="#000001" d="m-6-26h12v2h-12zm0 3h12v2h-12zm0 3h12v2h-12z"/><use width="100%" height="100%" y="44" xlink:href="#c"/></g><path stroke="#fff" d="m0 17v10"/><path fill="#cd2e3a" d="m0-12a12 12 0 0 1 0 24z"/><path fill="#0047a0" d="m0-12a12 12 0 0 0 0 24 6 6 0 0 0 0-12z"/><circle cy="-6" r="6" fill="#cd2e3a"/></g><g transform="matrix(-5.91834241 -8.87418008 8.87418008 -5.91834241 245.538708 255.780952)"><use width="100%" height="100%" xlink:href="#b"/><path stroke="#fff" d="m0-23.5v3m0 37.5v3.5m0 3v3"/></g></g></svg>