<svg viewBox="0 0 150 150"><defs><style>.cls-1,.cls-2{fill:none;stroke:#000;stroke-width:12px}.cls-1{stroke-linecap:round;stroke-linejoin:bevel}.cls-2{stroke-miterlimit:10}</style></defs><g id="By_Maxihplay"><path d="m122.71,16.1c8.94,0,16.18,7.13,16.18,15.91v85.98c0,8.78-7.25,15.91-16.18,15.91H27.29c-8.94,0-16.18-7.13-16.18-15.91V32.02c0-8.78,7.25-15.91,16.18-15.91h95.43Z" class="cls-2"/><g id="botoes"><ellipse id="b" cx="48.19" cy="115.43" rx="6.64" ry="6.52"/><ellipse id="a" cx="31.22" cy="115.43" rx="6.64" ry="6.52"/></g><g><polyline points="116.73 40.14 116.73 99.54 100.73 113.74" class="cls-1"/><ellipse cx="116.73" cy="43.21" rx="11.42" ry="11.22"/></g><g id="disco"><path d="m63.43,78.59c-6.02,0-10.91-4.86-10.91-10.83s4.9-10.83,10.91-10.83,10.91,4.86,10.91,10.83-4.9,10.83-10.91,10.83Z"/><ellipse cx="63.43" cy="67.77" class="cls-2" rx="32.22" ry="31.67"/></g></g></svg>