<svg viewBox="0 0 150 150"><defs><style>.cls-2,.cls-3{stroke:#000;stroke-miterlimit:10}.cls-2{fill:none}.cls-3{stroke-width:9px}.cls-2{stroke-width:12px}</style></defs><g id="By_Maxihplay"><g id="teclas"><path id="espaco" d="M102.85,102.7H47.15c-1.64,0-2.96-1.51-2.96-3.37v-5.75c0-1.86,1.33-3.37,2.96-3.37h55.7c1.64,0,2.96,1.51,2.96,3.37v5.75c0,1.86-1.33,3.37-2.96,3.37Z"/><g id="baixo"><rect width="6.5" height="6.5" x="30.55" y="73.44" class="cls-3" rx=".19" ry=".19"/><rect width="6.5" height="6.5" x="51.11" y="73.54" class="cls-3" rx=".19" ry=".19"/><rect width="6.5" height="6.5" x="71.68" y="73.34" class="cls-3" rx=".19" ry=".19"/><rect width="6.5" height="6.5" x="92.25" y="73.63" class="cls-3" rx=".19" ry=".19"/><rect width="6.5" height="6.5" x="112.95" y="73.78" class="cls-3" rx=".19" ry=".19"/></g><g id="cima"><rect width="6.5" height="6.5" x="30.55" y="52.39" class="cls-3" rx=".19" ry=".19"/><rect width="6.5" height="6.5" x="51.11" y="52.49" class="cls-3" rx=".19" ry=".19"/><rect width="6.5" height="6.5" x="71.68" y="52.3" class="cls-3" rx=".19" ry=".19"/><rect width="6.5" height="6.5" x="92.25" y="52.59" class="cls-3" rx=".19" ry=".19"/><rect width="6.5" height="6.5" x="112.95" y="52.74" class="cls-3" rx=".19" ry=".19"/></g></g><rect id="externo" width="124.83" height="78.9" x="12.58" y="35.55" class="cls-2" rx="12" ry="12"/></g></svg>