<svg xmlns="http://www.w3.org/2000/svg" xmlns:svg="http://www.w3.org/2000/svg" id="Agrupar_1" width="900" height="900" data-name="Agrupar 1" version="1.1" viewBox="0 0 900 900"><defs id="defs4"><style id="style2">.cls-1,.cls-2,.cls-3{fill:none;stroke:#000;fill-rule:evenodd}.cls-1{stroke-linejoin:round}.cls-1,.cls-3{stroke-width:30px}.cls-2{stroke-width:50px}</style></defs><path id="Forma_2" d="m 692.86363,348.56899 66.82392,106.20442 -66.82392,96.65714 z" class="cls-1" data-name="Forma 2" style="stroke:#000;stroke-width:35.7398;stroke-dasharray:none;fill:#000;fill-opacity:1"/><path id="Forma_1" d="M868.74,145.621l-0.313,617.672s-214.8.366-415.4,0.718c-175.375.307-339.9,0.6-340.544,0.634-48.166,2.275-79.67-30.412-81.191-67.379-0.058-1.412-.008-491.758,0-492,1.408-43.122,35.658-71.221,73.025-69.4,1.5,0.073,168.973,2.213,346.758,4.47C653.239,142.9,868.74,145.621,868.74,145.621Z" class="cls-2" data-name="Forma 1" style="stroke:#000;stroke-width:70;stroke-dasharray:none"/><path id="Retângulo_1" d="m 428.2337,271.16384 v 358.19549 a 34.099535,34.099535 0 0 1 -34.09954,34.09954 H 240.87862 A 34.099535,34.099535 0 0 1 206.77908,629.35933 V 271.16384 a 34.099535,34.099535 0 0 1 34.09954,-34.09954 h 153.25554 a 34.099535,34.099535 0 0 1 34.09954,34.09954 z" class="cls-3" data-name="Retângulo 1" style="stroke:#000;stroke-width:50;stroke-dasharray:none"/></svg>