<svg xmlns="http://www.w3.org/2000/svg" xmlns:svg="http://www.w3.org/2000/svg" xmlns:xlink="http://www.w3.org/1999/xlink" id="svg4" width="570" height="275" version="1.1" viewBox="0 0 150.812 72.76"><defs id="defs4"><linearGradient id="linearGradient6"><stop style="stop-color:#ca9800;stop-opacity:1" id="stop6" offset=".5"/><stop style="stop-color:#ffe080;stop-opacity:1" id="stop7" offset="1"/></linearGradient><linearGradient id="linearGradient4"><stop style="stop-color:#87b6f8;stop-opacity:1" id="stop4" offset="0"/><stop style="stop-color:#0f65dd;stop-opacity:1" id="stop5" offset=".501"/></linearGradient><linearGradient id="linearGradient5" x1="229.8" x2="229.8" y1="-556.425" y2="-531.585" gradientUnits="userSpaceOnUse" xlink:href="#linearGradient4"/><linearGradient id="linearGradient7" x1="257.588" x2="257.588" y1="-529.965" y2="-558.045" gradientTransform="translate(-0.66412404)" gradientUnits="userSpaceOnUse" xlink:href="#linearGradient6"/></defs><g id="g4" transform="matrix(5.6312119,0,0,5.6312119,-392.00615,-696.01846)"><g id="g3" transform="matrix(0.35278,0,0,-0.35278,-4.3083,326.78)"><g style="font-variant-ligatures:normal;font-variant-caps:normal;font-variant-numeric:normal;font-feature-settings:normal" id="g2" aria-label="RA" transform="matrix(1.1293,0,0,-1.1092,-28.246,-45.784)"><path style="font-variant-ligatures:normal;font-variant-caps:normal;font-variant-numeric:normal;font-feature-settings:normal;fill:url(#linearGradient5)" id="path1" d="m 217.38,-553.59 h 11.73 q 1.89,0 3.12,1.14 1.26,1.14 1.26,3.45 0,0.99 -0.33,1.86 -0.33,0.84 -0.93,1.47 -0.57,0.63 -1.38,0.99 -0.81,0.36 -1.74,0.36 h -0.99 l 8.55,15.03 h -4.29 l -5.94,-10.29 v 10.29 h -3.99 v -19.17 h 6.51 q 0.24,0 0.36,-0.18 0.15,-0.18 0.15,-0.39 0,-0.21 -0.15,-0.36 -0.12,-0.18 -0.36,-0.18 h -7.59 v 20.28 h -3.99 z m 12.66,10.26 q 0.87,-0.06 1.68,-0.51 0.84,-0.45 1.47,-1.2 0.63,-0.75 1.02,-1.74 0.39,-1.02 0.39,-2.22 0,-1.23 -0.39,-2.28 -0.39,-1.05 -1.11,-1.8 -0.72,-0.75 -1.74,-1.17 -0.99,-0.42 -2.25,-0.42 h -11.73 v -4.05 h 11.73 q 1.98,0 3.72,0.75 1.74,0.75 3.03,2.07 1.29,1.32 2.01,3.09 0.75,1.77 0.75,3.81 0,2.58 -0.87,4.47 -0.87,1.86 -2.37,3 l 6.84,12.24 h -4.08 z"/><path style="font-variant-ligatures:normal;font-variant-caps:normal;font-variant-numeric:normal;font-feature-settings:normal;fill:url(#linearGradient7)" id="path2" d="m 253.50413,-532.8 h 12.45 l -7.62,-21.15 q -0.09,-0.3 -0.54,-0.54 -0.45,-0.24 -0.87,-0.24 -0.48,0 -0.9,0.24 -0.39,0.24 -0.48,0.54 l -8.67,24.66 h -3.99 l 9.27,-26.16 q 0.21,-0.63 0.6,-1.2 0.39,-0.6 0.96,-1.05 0.6,-0.48 1.38,-0.75 0.81,-0.27 1.83,-0.27 1.02,0 1.8,0.27 0.78,0.27 1.35,0.75 0.6,0.45 0.99,1.05 0.39,0.57 0.63,1.2 l 9.27,26.16 h -17.46 z m 0,-1.08 v -1.14 l -1.92,5.73 h -3.63 l 8.25,-23.91 q 0.06,-0.18 0.27,-0.3 0.24,-0.15 0.45,-0.15 0.21,0 0.45,0.15 0.24,0.12 0.3,0.3 l 6.84,19.32 z m 3.42,-11.13 -2.4,7.56 h 4.89 z"/></g></g></g></svg>