<svg xmlns="http://www.w3.org/2000/svg" xmlns:svg="http://www.w3.org/2000/svg" id="svg5" width="88" height="16" version="1.1" viewBox="0 0 88 16"><g id="layer1"><path style="fill:#ff3;stroke:#000;stroke-width:.5;stroke-linecap:round;stroke-linejoin:round;stroke-dasharray:none" id="path238" d="m 12.866945,3.7744083 2.417441,4.8982696 5.405562,0.7854747 -3.911501,3.8127714 0.92338,5.38372 L 12.866945,16.112796 8.0320636,18.654643 8.9554435,13.270924 5.0439428,9.4581522 10.449504,8.6726779 Z" transform="translate(-4.5440002,-3.3684146)"/><path style="fill:#ff3;stroke:#000;stroke-width:.5;stroke-linecap:round;stroke-linejoin:round;stroke-dasharray:none" id="path238-6" d="m 12.866945,3.7744083 2.417441,4.8982696 5.405562,0.7854747 -3.911501,3.8127714 0.92338,5.38372 L 12.866945,16.112796 8.0320636,18.654643 8.9554435,13.270924 5.0439428,9.4581522 10.449504,8.6726779 Z" transform="translate(13.508654,-3.287675)"/><path style="fill:#ff3;stroke:#000;stroke-width:.5;stroke-linecap:round;stroke-linejoin:round;stroke-dasharray:none" id="path238-7" d="m 12.866945,3.7744083 2.417441,4.8982696 5.405562,0.7854747 -3.911501,3.8127714 0.92338,5.38372 L 12.866945,16.112796 8.0320636,18.654643 8.9554435,13.270924 5.0439428,9.4581522 10.449504,8.6726779 Z" transform="translate(31.485839,-3.3684146)"/><path style="fill:#ff3;stroke:#000;stroke-width:.5;stroke-linecap:round;stroke-linejoin:round;stroke-dasharray:none" id="path238-5" d="m 12.866945,3.7744083 2.417441,4.8982696 5.405562,0.7854747 -3.911501,3.8127714 0.92338,5.38372 L 12.866945,16.112796 8.0320636,18.654643 8.9554435,13.270924 5.0439428,9.4581522 10.449504,8.6726779 Z" transform="translate(49.500759,-3.3684146)"/><path style="fill:#fff;stroke:#000;stroke-width:.5;stroke-linecap:round;stroke-linejoin:round;stroke-dasharray:none;fill-opacity:1" id="path238-3" d="m 12.866945,3.7744083 2.417441,4.8982696 5.405562,0.7854747 -3.911501,3.8127714 0.92338,5.38372 L 12.866945,16.112796 8.0320636,18.654643 8.9554435,13.270924 5.0439428,9.4581522 10.449504,8.6726779 Z" transform="translate(66.81011,-3.3684146)"/></g></svg>