<svg viewBox="0 0 150 150"><style type="text/css">.st0{fill:none;stroke:#fff;stroke-width:12;stroke-miterlimit:10}.st1{fill:#fff}.st2{fill:none;stroke:#fff;stroke-width:12;stroke-linecap:round;stroke-linejoin:bevel}</style><g id="By_Maxihplay"><path id="corpo" d="M122.7,16.1c8.9,0,16.2,7.1,16.2,15.9v86c0,8.8-7.2,15.9-16.2,15.9H27.3c-8.9,0-16.2-7.1-16.2-15.9 V32c0-8.8,7.2-15.9,16.2-15.9L122.7,16.1L122.7,16.1z" class="st0"/><g id="botoes"><ellipse id="b" cx="48.2" cy="115.4" class="st1" rx="6.6" ry="6.5"/><ellipse id="a" cx="31.2" cy="115.4" class="st1" rx="6.6" ry="6.5"/></g><g><polyline points="116.7 40.1 116.7 99.5 100.7 113.7" class="st2"/><ellipse cx="116.7" cy="43.2" class="st1" rx="11.4" ry="11.2"/></g><g id="disco"><path d="M63.4,78.6c-6,0-10.9-4.9-10.9-10.8s4.9-10.8,10.9-10.8s10.9,4.9,10.9,10.8S69.4,78.6,63.4,78.6z" class="st1"/><ellipse cx="63.4" cy="67.8" class="st0" rx="32.2" ry="31.7"/></g></g></svg>