<svg xmlns="http://www.w3.org/2000/svg" xmlns:svg="http://www.w3.org/2000/svg" id="Agrupar_1" width="384" height="384" data-name="Agrupar 1" version="1.1" viewBox="0 0 384 384"><defs id="defs4"><style id="style2">.cls-1,.cls-2,.cls-3{fill:none;stroke:#fff;fill-rule:evenodd}.cls-1{stroke-width:23px}.cls-2{stroke-width:25px}.cls-3{stroke-width:33px}</style></defs><path id="Forma_1" d="m 325.86348,300.4432 c 0,0 0.24183,10.50408 0.73655,22.59208 0.49472,12.08801 -9.9751,12.18675 -9.9751,12.18675 0,0 -243.213007,-1.34412 -251.481254,-1.10834 -8.268247,0.23577 -8.866752,-9.97006 -8.866752,-9.97006 V 79.309414 c 0,0 1.493241,-7.466209 8.866752,-8.866753 7.373511,-1.400544 214.923034,0 214.923034,0 l 46.52929,46.529289 0.27507,86.74304" class="cls-1" data-name="Forma 1"/><path id="Forma_2" d="m 127.18676,70.446691 1.10835,88.628229 c 0,0 -1.75925,2.70033 5.54172,3.32503 7.30096,0.62471 121.86344,1.10835 121.86344,1.10835 a 5.4711894,5.4711894 0 0 0 3.32503,-5.54172 c -0.0867,-4.38804 0,-88.628233 0,-88.628233" class="cls-1" data-name="Forma 2"/><path id="Forma_5" d="m 267.20286,207.74533 c 1.47007,1.13656 53.06651,44.51412 53.06651,44.51412 l -51.05134,47.17617" class="cls-2" data-name="Forma 5"/><path id="Forma_6" d="M 315.56697,253.08668 152.33811,252.0791" class="cls-3" data-name="Forma 6"/></svg>