<svg viewBox="0 0 150 150"><style type="text/css">.st1{stroke-linecap:round}.st1,.st3{fill:none;stroke:#fff;stroke-width:12;stroke-miterlimit:10}</style><g id="By_maxihplay"><g id="suporte"><line x1="44.9" x2="105.1" y1="137.8" y2="137.8" class="st1"/><line x1="75" x2="75" y1="114.8" y2="137.8" class="st1"/><path d="M107.7,69v18.5c0,13.3-10.8,24.1-24.1,24.1H66.4c-13.3,0-24.1-10.8-24.1-24.1V69" class="st1"/></g><g id="Mic"><path fill="#fff" d="M75,77.1c-3.5,0-6.3-2.8-6.3-6.3s2.8-6.3,6.3-6.3s6.3,2.8,6.3,6.3S78.5,77.1,75,77.1z"/><line x1="69.4" x2="80.6" y1="96.4" y2="96.4" class="st1"/><line x1="55.8" x2="94.2" y1="43.9" y2="43.7" class="st3"/><path d="M73.1,12.2h3.8c9.6,0,17.3,7.7,17.3,17.3v45.4c0,9.6-7.7,17.3-17.3,17.3h-3.8c-9.6,0-17.3-7.7-17.3-17.3V29.5 C55.8,20,63.5,12.2,73.1,12.2z" class="st3"/></g></g></svg>